FILE "CyberSled (USA) (Track 01).bin" BINARY
  TRACK 01 MODE2/2352
    INDEX 01 00:00:00
  TRACK 02 AUDIO
    INDEX 00 10:27:25
    INDEX 01 10:29:25
  TRACK 03 AUDIO
    INDEX 00 10:33:64
    INDEX 01 10:35:64
  TRACK 04 AUDIO
    INDEX 00 10:52:20
    INDEX 01 10:54:20
  TRACK 05 AUDIO
    INDEX 00 10:58:40
    INDEX 01 11:00:40
  TRACK 06 AUDIO
    INDEX 00 11:05:00
    INDEX 01 11:07:00
  TRACK 07 AUDIO
    INDEX 00 11:11:22
    INDEX 01 11:13:22
  TRACK 08 AUDIO
    INDEX 00 11:17:52
    INDEX 01 11:19:52
  TRACK 09 AUDIO
    INDEX 00 11:23:65
    INDEX 01 11:25:65
  TRACK 10 AUDIO
    INDEX 00 11:30:17
    INDEX 01 11:32:17
  TRACK 11 AUDIO
    INDEX 00 11:36:47
    INDEX 01 11:38:47
  TRACK 12 AUDIO
    INDEX 00 11:43:08
    INDEX 01 11:45:08
  TRACK 13 AUDIO
    INDEX 00 11:49:21
    INDEX 01 11:51:21
  TRACK 14 AUDIO
    INDEX 00 11:55:46
    INDEX 01 11:57:46
  TRACK 15 AUDIO
    INDEX 00 12:01:71
    INDEX 01 12:03:71
  TRACK 16 AUDIO
    INDEX 00 12:08:29
    INDEX 01 12:10:29
  TRACK 17 AUDIO
    INDEX 00 12:14:46
    INDEX 01 12:16:46
  TRACK 18 AUDIO
    INDEX 00 12:21:03
    INDEX 01 12:23:03
  TRACK 19 AUDIO
    INDEX 00 12:27:30
    INDEX 01 12:29:30
  TRACK 20 AUDIO
    INDEX 00 12:33:71
    INDEX 01 12:35:71
  TRACK 21 AUDIO
    INDEX 00 12:40:18
    INDEX 01 12:42:18
  TRACK 22 AUDIO
    INDEX 00 12:46:50
    INDEX 01 12:48:50
  TRACK 23 AUDIO
    INDEX 00 12:52:74
    INDEX 01 12:54:74
  TRACK 24 AUDIO
    INDEX 00 12:59:34
    INDEX 01 13:01:34
  TRACK 25 AUDIO
    INDEX 00 13:05:59
    INDEX 01 13:07:59
  TRACK 26 AUDIO
    INDEX 00 13:12:17
    INDEX 01 13:14:17
  TRACK 27 AUDIO
    INDEX 00 13:18:38
    INDEX 01 13:20:38
  TRACK 28 AUDIO
    INDEX 00 13:25:03
    INDEX 01 13:27:03
  TRACK 29 AUDIO
    INDEX 00 13:35:67
    INDEX 01 13:37:67
  TRACK 30 AUDIO
    INDEX 00 13:46:25
    INDEX 01 13:48:25
  TRACK 31 AUDIO
    INDEX 00 13:56:62
    INDEX 01 13:58:62
  TRACK 32 AUDIO
    INDEX 00 14:07:27
    INDEX 01 14:09:27
  TRACK 33 AUDIO
    INDEX 00 14:17:65
    INDEX 01 14:19:65
  TRACK 34 AUDIO
    INDEX 00 14:28:57
    INDEX 01 14:30:57
  TRACK 35 AUDIO
    INDEX 00 14:39:28
    INDEX 01 14:41:28
  TRACK 36 AUDIO
    INDEX 00 14:49:69
    INDEX 01 14:51:69
  TRACK 37 AUDIO
    INDEX 00 15:00:70
    INDEX 01 15:02:70
  TRACK 38 AUDIO
    INDEX 00 15:11:67
    INDEX 01 15:13:67
  TRACK 39 AUDIO
    INDEX 00 15:22:40
    INDEX 01 15:24:40
  TRACK 40 AUDIO
    INDEX 00 15:33:32
    INDEX 01 15:35:32
  TRACK 41 AUDIO
    INDEX 00 19:32:41
    INDEX 01 19:34:41
  TRACK 42 AUDIO
    INDEX 00 23:28:52
    INDEX 01 23:30:52
  TRACK 43 AUDIO
    INDEX 00 26:46:35
    INDEX 01 26:48:35
  TRACK 44 AUDIO
    INDEX 00 31:32:06
    INDEX 01 31:34:06
  TRACK 45 AUDIO
    INDEX 00 35:13:25
    INDEX 01 35:15:25
  TRACK 46 AUDIO
    INDEX 00 38:03:22
    INDEX 01 38:05:22
  TRACK 47 AUDIO
    INDEX 00 42:12:71
    INDEX 01 42:14:71
  TRACK 48 AUDIO
    INDEX 00 45:49:67
    INDEX 01 45:51:67
